<?xml version="1.0" encoding="iso-8859-1"?>
<!-- Generator: Adobe Illustrator 19.0.0, SVG Export Plug-In . SVG Version: 6.00 Build 0)  -->
<svg version="1.1" id="Capa_1" xmlns="http://www.w3.org/2000/svg" xmlns:xlink="http://www.w3.org/1999/xlink" x="0px" y="0px"
	 viewBox="0 0 512 512" style="enable-background:new 0 0 512 512;" xml:space="preserve">
<g>
	<g>
		<path d="M160,0H32C18.864,0.009,7.067,8.045,2.251,20.267C0.8,22.122,0.008,24.407,0,26.763v26.571C0,59.224,4.776,64,10.667,64
			h128c17.673,0,32-14.327,32-32V10.667C170.667,4.776,165.891,0,160,0z M149.333,32c0,5.891-4.776,10.667-10.667,10.667H21.333V32
			c0-5.891,4.776-10.667,10.667-10.667h117.333V32z" fill="#e67e22"/>
	</g>
</g>
<g>
	<g>
		<path d="M509.749,20.267C504.933,8.045,493.136,0.009,480,0H352c-5.891,0-10.667,4.776-10.667,10.667V32c0,17.673,14.327,32,32,32
			h128C507.224,64,512,59.224,512,53.333V26.763C511.992,24.407,511.2,22.122,509.749,20.267z M490.667,42.667H373.333
			c-5.891,0-10.667-4.776-10.667-10.667V21.333H480c5.891,0,10.667,4.776,10.667,10.667V42.667z" fill="#e67e22"/>
	</g>
</g>
<g>
	<g>
		<path d="M106.667,42.667H64c-5.891,0-10.667,4.776-10.667,10.667V96h21.333V64H96v32h21.333V53.333
			C117.333,47.442,112.558,42.667,106.667,42.667z" fill="#e67e22"/>
	</g>
</g>
<g>
	<g>
		<path d="M448,42.667h-42.667c-5.891,0-10.667,4.776-10.667,10.667V96H416V64h21.333v32h21.333V53.333
			C458.667,47.442,453.891,42.667,448,42.667z" fill="#e67e22"/>
	</g>
</g>
<g>
	<g>
		<path d="M508.875,131.125l-21.333-21.333c-2-2-4.713-3.125-7.541-3.125H340.672c-4.864-38.687-35.334-69.156-74.021-74.021
			c-46.76-5.88-89.433,27.261-95.312,74.021H32c-2.829,0.001-5.541,1.125-7.541,3.125L3.125,131.125c-2,2-3.125,4.713-3.125,7.541
			v106.667C0,251.224,4.776,256,10.667,256H64v10.667c0,17.673,14.327,32,32,32h320c17.673,0,32-14.327,32-32V256h53.333
			c5.891,0,10.667-4.776,10.667-10.667V138.667C511.999,135.838,510.875,133.125,508.875,131.125z M490.667,234.667h-53.333
			c-5.891,0-10.667,4.776-10.667,10.667v21.333c0,5.891-4.776,10.667-10.667,10.667H96c-5.891,0-10.667-4.776-10.667-10.667v-21.333
			c0-5.891-4.776-10.667-10.667-10.667H21.333v-91.584L36.416,128h144.917c5.891,0,10.667-4.776,10.667-10.667
			c0-35.346,28.654-64,64-64c35.346,0,64,28.654,64,64c0,5.891,4.776,10.667,10.667,10.667h144.917l15.083,15.083V234.667z" fill="#e67e22"/>
	</g>
</g>
<g>
	<g>
		<path d="M330.347,200.075l-10.667-42.667c-1.189-4.746-5.454-8.075-10.347-8.075H202.667c-4.893,0-9.158,3.329-10.347,8.075
			l-10.667,42.667c-0.212,0.848-0.32,1.718-0.32,2.592c0,5.891,4.775,10.667,10.666,10.667h128c0.874,0,1.744-0.107,2.592-0.32
			C328.306,211.582,331.778,205.789,330.347,200.075z M205.664,192l5.333-21.333h90.005L306.336,192H205.664z" fill="#e67e22"/>
	</g>
</g>
<g>
	<g>
		<path d="M256,74.667c-17.673,0-32,14.327-32,32h21.333C245.333,100.776,250.109,96,256,96s10.667,4.776,10.667,10.667H288
			C288,88.994,273.673,74.667,256,74.667z" fill="#e67e22"/>
	</g>
</g>
<g>
	<g>
		<rect x="106.667" y="234.667" width="298.667" height="21.333" fill="#e67e22"/>
	</g>
</g>
<g>
	<g>
		<path d="M256,320c-53.019,0-96,42.981-96,96c0,53.019,42.981,96,96,96c52.995-0.059,95.941-43.005,96-96
			C352,362.981,309.019,320,256,320z M256,490.667c-41.237,0-74.667-33.429-74.667-74.667c0-41.237,33.429-74.667,74.667-74.667
			c41.218,0.047,74.62,33.449,74.667,74.667C330.667,457.237,297.237,490.667,256,490.667z" fill="#e67e22"/>
	</g>
</g>
<g>
	<g>
		<path d="M341.333,277.333H170.667c-0.874,0-1.744,0.107-2.592,0.32c-5.714,1.432-9.186,7.224-7.755,12.939l10.667,42.667
			c1.189,4.746,5.454,8.075,10.347,8.075h149.333c4.893,0,9.158-3.329,10.347-8.075l10.667-42.667
			c0.212-0.848,0.32-1.718,0.32-2.592C352,282.109,347.224,277.333,341.333,277.333z M322.336,320H189.664l-5.333-21.333h143.339
			L322.336,320z" fill="#e67e22"/>
	</g>
</g>
<g>
	<g>
		<path d="M256,362.667c-29.455,0-53.333,23.878-53.333,53.333s23.878,53.333,53.333,53.333
			c29.441-0.035,53.298-23.893,53.333-53.333C309.333,386.545,285.455,362.667,256,362.667z M256,448c-17.673,0-32-14.327-32-32
			s14.327-32,32-32s32,14.327,32,32S273.673,448,256,448z" fill="#e67e22"/>
	</g>
</g>
<g>
	<g>
		<path d="M266.667,411.584v-38.251h-21.333V416c0.001,2.829,1.125,5.541,3.125,7.541l30.08,30.08l15.083-15.083L266.667,411.584z"
			 fill="#e67e22"/>
	</g>
</g>
<g>
	<g>
		<rect x="160" y="192" width="192" height="21.333" fill="#e67e22"/>
	</g>
</g>
<g>
	<g>
		<rect x="448" y="170.667" width="21.333" height="21.333" fill="#e67e22"/>
	</g>
</g>
<g>
	<g>
		<path d="M384,170.667c-5.891,0-10.667,4.776-10.667,10.667v32h21.333V192h32v-21.333H384z" fill="#e67e22"/>
	</g>
</g>
<g>
	<g>
		<rect x="42.667" y="170.667" width="21.333" height="21.333" fill="#e67e22"/>
	</g>
</g>
<g>
	<g>
		<path d="M128,170.667H85.333V192h32v21.333h21.333v-32C138.667,175.442,133.891,170.667,128,170.667z" fill="#e67e22"/>
	</g>
</g>
<g>
</g>
<g>
</g>
<g>
</g>
<g>
</g>
<g>
</g>
<g>
</g>
<g>
</g>
<g>
</g>
<g>
</g>
<g>
</g>
<g>
</g>
<g>
</g>
<g>
</g>
<g>
</g>
<g>
</g>
</svg>
