<?xml version="1.0" encoding="iso-8859-1"?>
<!-- Generator: Adobe Illustrator 19.0.0, SVG Export Plug-In . SVG Version: 6.00 Build 0)  -->
<svg version="1.1" id="Capa_1" xmlns="http://www.w3.org/2000/svg" xmlns:xlink="http://www.w3.org/1999/xlink" x="0px" y="0px"
	 viewBox="0 0 481.614 481.614" style="enable-background:new 0 0 481.614 481.614;" xml:space="preserve">
<g>
	<g>
		<g>
			<path d="M286.4,62.243l7.592-14.08c-33.168-17.471-72.816-17.471-105.984,0l7.592,14.08
				C224.019,47.283,257.982,47.283,286.4,62.243z" fill="#e67e22"/>
			<path d="M217.536,103.011l7.6,14.08c9.848-5.551,21.881-5.551,31.728,0l7.6-14.08C249.872,94.906,232.129,94.906,217.536,103.011
				z" fill="#e67e22"/>
			<path d="M279.4,75.307c-24.013-12.656-52.723-12.656-76.736,0l7.592,14.08c19.263-10.145,42.289-10.145,61.552,0L279.4,75.307z"
				 fill="#e67e22"/>
			<path d="M449.606,324.902c-15.896-13.227-35.926-20.463-56.605-20.451c-20.694-0.016-40.731,7.26-56.592,20.552l-34.992-34.992
				c4.633-32.71,4.615-65.911-0.056-98.616l34.584-34.584c37.573,31.326,93.428,26.261,124.754-11.312
				c31.326-37.573,26.261-93.428-11.312-124.754S355.958-5.516,324.632,32.057c-27.391,32.854-27.391,80.588,0,113.442
				l-26.544,26.544c-2.499-12.65-5.65-25.163-9.44-37.488l-1.744-5.648h-91.808l-1.744,5.648
				c-3.824,12.451-7.002,25.092-9.52,37.872l-26.92-26.928c31.379-37.604,26.332-93.526-11.272-124.905
				C108.037-10.785,52.115-5.739,20.736,31.866C-10.643,69.47-5.597,125.392,32.008,156.771
				c32.884,27.44,80.681,27.457,113.585,0.04l34.992,34.992c-4.633,32.71-4.615,65.911,0.056,98.616l-34.584,34.584
				c-37.573-31.326-93.427-26.262-124.754,11.312c-31.326,37.573-26.262,93.428,11.312,124.754
				c37.573,31.326,93.428,26.262,124.754-11.312c27.391-32.854,27.391-80.588,0-113.442l26.544-26.544
				c2.499,12.65,5.65,25.163,9.44,37.488l1.744,5.648H233v16.72c-20.1,3.435-35.845,19.18-39.28,39.28H185v16h33.472
				c2.42,6.775,7.753,12.108,14.528,14.528v9.472h16v-9.472c6.776-2.42,12.108-7.753,14.528-14.528H297v-16h-8.72
				c-3.435-20.1-19.18-35.845-39.28-39.28v-16.72h37.904l1.744-5.648c3.824-12.451,7.002-25.092,9.52-37.872l26.92,26.928
				c-31.233,37.536-26.123,93.284,11.413,124.517c37.536,31.233,93.284,26.123,124.517-11.413
				C492.252,411.883,487.142,356.134,449.606,324.902z M320.552,96.907h41.824v-16h-41.824c3.783-33.655,30.345-60.217,64-64v51.88
				h16v-51.88c33.651,3.792,60.208,30.349,64,64h-51.896v16h51.88c-3.792,33.651-30.349,60.208-64,64v-41.832h-16v41.832
				c-13.621-1.512-26.528-6.876-37.208-15.464l50.864-50.872L386.88,83.259l-50.864,50.872
				C327.429,123.445,322.064,110.532,320.552,96.907z M145.536,134.123L94.664,83.251L83.352,94.563l50.872,50.872
				c-10.685,8.591-23.598,13.958-37.224,15.472v-41.832H81v41.832c-33.654-3.786-60.214-30.346-64-64h51.872v-16H17
				c3.786-33.654,30.346-60.214,64-64v51.88h16v-51.88c33.654,3.786,60.214,30.346,64,64h-41.832v16H161
				C159.489,110.53,154.124,123.44,145.536,134.123z M161.448,384.907h-41.824v16h41.824c-3.783,33.655-30.345,60.217-64,64v-51.888
				h-16v51.888c-33.651-3.792-60.208-30.349-64-64h51.88v-16H17.464c3.792-33.651,30.349-60.208,64-64v41.824h16v-41.824
				c13.621,1.512,26.528,6.876,37.208,15.464l-50.864,50.872l11.312,11.312l50.864-50.872
				C154.572,358.369,159.936,371.281,161.448,384.907z M241,424.907c-4.418,0-8-3.582-8-8s3.582-8,8-8s8,3.582,8,8
				S245.419,424.907,241,424.907z M271.864,408.907h-8.336c-4.335-12.442-17.935-19.014-30.376-14.68
				c-6.877,2.396-12.284,7.802-14.68,14.68h-8.336c4.339-17.046,21.674-27.347,38.719-23.009
				C260.16,388.775,268.987,397.602,271.864,408.907z M288.632,248.907c-0.128,5.336-0.192,10.664-0.576,16H265v16h21.328
				c-0.496,4.104-1,8.216-1.648,12.32l-1.336,1.336l0.928,0.928c-2.245,13.978-5.328,27.808-9.232,41.416h-68.056
				c-3.872-13.48-6.939-27.179-9.184-41.024l1.32-1.32l-1.904-1.904c-0.608-3.912-1.072-7.832-1.544-11.752H217v-16h-23.056
				c-0.384-5.336-0.448-10.664-0.576-16H217v-16h-23.632c0.128-5.336,0.192-10.664,0.576-16H217v-16h-21.328
				c0.496-4.104,1-8.216,1.648-12.32l1.336-1.336l-0.928-0.928c2.245-13.978,5.328-27.808,9.232-41.416h68.08
				c3.864,13.481,6.923,27.18,9.16,41.024l-1.32,1.32l1.904,1.904c0.608,3.912,1.072,7.832,1.544,11.752H265v16h23.056
				c0.384,5.336,0.448,10.664,0.576,16H265v16H288.632z M401,464.907v-51.888h-16v51.888c-33.654-3.786-60.214-30.346-64-64h41.824
				v-16H321c1.512-13.623,6.876-26.533,15.464-37.216l50.872,50.872l11.312-11.312l-50.872-50.872
				c10.685-8.591,23.598-13.958,37.224-15.472v41.824h16v-41.824c33.654,3.786,60.214,30.346,64,64h-51.88v16H465
				C461.214,434.56,434.654,461.121,401,464.907z" fill="#e67e22"/>
		</g>
	</g>
</g>
<g>
</g>
<g>
</g>
<g>
</g>
<g>
</g>
<g>
</g>
<g>
</g>
<g>
</g>
<g>
</g>
<g>
</g>
<g>
</g>
<g>
</g>
<g>
</g>
<g>
</g>
<g>
</g>
<g>
</g>
</svg>
