<?xml version="1.0" encoding="iso-8859-1"?>
<!-- Generator: Adobe Illustrator 19.0.0, SVG Export Plug-In . SVG Version: 6.00 Build 0)  -->
<svg version="1.1" id="Capa_1" xmlns="http://www.w3.org/2000/svg" xmlns:xlink="http://www.w3.org/1999/xlink" x="0px" y="0px"
	 viewBox="0 0 512 512" style="enable-background:new 0 0 512 512;" xml:space="preserve">
<g>
	<g>
		<path d="M256,0C138.179,0,42.667,95.513,42.667,213.333c0,164,199.157,291.659,207.637,297.024
			c1.705,1.075,3.68,1.644,5.696,1.643c2.016,0.002,3.991-0.568,5.696-1.643c8.48-5.365,207.637-133.024,207.637-297.024
			C469.333,95.513,373.821,0,256,0z M256,488.533c-32.448-22.091-192-137.781-192-275.2c0.123-105.987,86.013-191.877,192-192
			c105.988,0.123,191.877,86.013,192,192C448,350.763,288.448,466.453,256,488.533z" fill="#e67e22"/>
	</g>
</g>
<g>
	<g>
		<rect x="170.667" y="138.667" width="64" height="21.333" fill="#e67e22"/>
	</g>
</g>
<g>
	<g>
		<rect x="277.333" y="138.667" width="64" height="21.333" fill="#e67e22"/>
	</g>
</g>
<g>
	<g>
		<rect x="192" y="149.333" width="21.333" height="32" fill="#e67e22"/>
	</g>
</g>
<g>
	<g>
		<rect x="298.667" y="149.333" width="21.333" height="32" fill="#e67e22"/>
	</g>
</g>
<g>
	<g>
		<path d="M330.667,170.667H181.333c-5.891,0-10.667,4.776-10.667,10.667V224c0,5.891,4.776,10.667,10.667,10.667h21.333V256
			c0,5.891,4.776,10.667,10.667,10.667h85.333c5.891,0,10.667-4.776,10.667-10.667v-21.333h21.333
			c5.891,0,10.667-4.776,10.667-10.667v-42.667C341.333,175.442,336.558,170.667,330.667,170.667z M320,213.333h-21.333
			c-5.891,0-10.667,4.776-10.667,10.667v21.333h-64V224c0-5.891-4.776-10.667-10.667-10.667H192V192h128V213.333z" fill="#e67e22"/>
	</g>
</g>
<g>
	<g>
		<rect x="202.667" y="256" width="21.333" height="32" fill="#e67e22"/>
	</g>
</g>
<g>
	<g>
		<rect x="288" y="256" width="21.333" height="32" fill="#e67e22"/>
	</g>
</g>
<g>
	<g>
		<path d="M394.667,213.333C394.578,289.88,332.547,351.912,256,352c-5.891,0-10.667,4.776-10.667,10.667v42.667h21.333v-32.352
			c83.989-5.722,149.225-75.465,149.333-159.648H394.667z" fill="#e67e22"/>
	</g>
</g>
<g>
	<g>
		<path d="M96,213.333h21.333C117.422,136.786,179.453,74.755,256,74.667V53.333C167.676,53.433,96.1,125.009,96,213.333z" fill="#e67e22"/>
	</g>
</g>
<g>
	<g>
		<rect x="277.333" y="53.333" width="21.333" height="21.333" fill="#e67e22"/>
	</g>
</g>
<g>
	<g>
		<rect x="245.333" y="426.667" width="21.333" height="21.333" fill="#e67e22"/>
	</g>
</g>
<g>
	<g>
		<rect x="213.333" y="213.333" width="42.667" height="21.333" fill="#e67e22"/>
	</g>
</g>
<g>
</g>
<g>
</g>
<g>
</g>
<g>
</g>
<g>
</g>
<g>
</g>
<g>
</g>
<g>
</g>
<g>
</g>
<g>
</g>
<g>
</g>
<g>
</g>
<g>
</g>
<g>
</g>
<g>
</g>
</svg>
