<?xml version="1.0" encoding="iso-8859-1"?>
<!-- Generator: Adobe Illustrator 19.0.0, SVG Export Plug-In . SVG Version: 6.00 Build 0)  -->
<svg version="1.1" id="Capa_1" xmlns="http://www.w3.org/2000/svg" xmlns:xlink="http://www.w3.org/1999/xlink" x="0px" y="0px"
	 viewBox="0 0 512 512" style="enable-background:new 0 0 512 512;" xml:space="preserve">
<g>
	<g>
		<path d="M503.5,247.5c0-66.109-25.745-128.262-72.491-175.009C384.263,25.744,322.109,0,256,0S127.738,25.745,80.991,72.491
			C34.244,119.237,8.5,181.391,8.5,247.5c0,66.11,25.745,128.262,72.491,175.009c13.527,13.527,28.35,25.282,44.179,35.177
			L114.77,512h30.545l7.543-39.391C184.802,487.266,219.804,495,256,495c36.195,0,71.197-7.734,103.142-22.391L366.685,512h30.545
			l-10.401-54.314c15.829-9.895,30.653-21.65,44.18-35.177C477.755,375.762,503.5,313.609,503.5,247.5z M409.796,93.705
			c30.321,30.321,50.573,68.022,59.109,109.049h-54.733c-4.956-17.567-12.846-34.248-23.502-49.456
			c-18.96-27.059-45.232-47.577-75.977-59.336l-0.453,1.183l-8.933-59.552C344.566,44.649,380.602,64.51,409.796,93.705z
			 M382.705,202.755h-52.324l-11.063-73.753c18.551,9.908,34.533,24.031,46.782,41.512
			C373.137,180.557,378.693,191.39,382.705,202.755z M237.752,30.766C243.79,30.267,249.874,30,256,30
			c6.126,0,12.21,0.267,18.247,0.765l25.798,171.99h-11.278c-9.188-6.751-20.518-10.75-32.768-10.75
			c-10.345,0-20.033,2.855-28.331,7.806l-14.867-2.703L237.752,30.766z M281.471,247.475c0,14.045-11.426,25.47-25.471,25.47
			c-14.044,0-25.47-11.426-25.47-25.47s11.425-25.471,25.47-25.471C270.044,222.004,281.471,233.43,281.471,247.475z M207,286.715
			h9.831c10.041,10.023,23.893,16.23,39.168,16.23c13.072,0,25.094-4.556,34.585-12.149L305,293.418v32.916h-98V286.715z
			 M102.204,93.705c29.195-29.195,65.231-49.056,104.489-58.112l-8.72,58.134c-28.76,10.902-54.399,30.007-73.064,54.66
			c-7.048,9.309-13.012,19.204-17.864,29.552c-9.524-1.432-19.135-1.221-28.609,0.673c-12.33,2.466-23.575,7.634-33.185,14.797
			C54.781,156.009,74.2,121.709,102.204,93.705z M192.676,129.043l-9.404,62.695l-45.398-8.254
			c3.201-5.878,6.842-11.559,10.953-16.988C160.559,151.001,175.653,138.192,192.676,129.043z M177,450.264
			c-27.711-10.787-53.137-27.309-74.796-48.968c-31.679-31.679-52.368-71.413-60.185-114.581h54.387
			c4.305,17.576,11.489,34.378,21.402,49.747c14.897,23.098,35.241,42,59.192,55.146V450.264z M177,356.15
			c-13.375-9.736-24.913-21.888-33.981-35.948c-6.741-10.452-11.932-21.719-15.516-33.487H177V356.15z M41.772,256.715
			c1.504-23.774,18.933-43.962,42.548-48.685c6.589-1.318,13.283-1.377,19.897-0.174l100.584,18.288
			c-2.748,6.571-4.272,13.775-4.272,21.331c0,3.149,0.278,6.233,0.784,9.24H41.772z M256,465c-17.906,0-35.48-2.157-52.431-6.333
			H207V356.333h98v102.333h3.431C291.48,462.843,273.906,465,256,465z M309.473,232.754h160.755
			c-1.504,23.774-18.933,43.961-42.548,48.685c-6.59,1.318-13.284,1.376-19.897,0.174l-98.728-17.95
			c1.567-5.124,2.416-10.558,2.416-16.188C311.471,242.378,310.766,237.446,309.473,232.754z M376.72,306.457
			c-2.304,4.71-4.875,9.304-7.739,13.745c-9.068,14.06-20.606,26.212-33.981,35.947v-57.278L376.72,306.457z M335,450.264v-58.656
			c23.951-13.146,44.294-32.047,59.191-55.145c5.069-7.86,9.412-16.1,13.039-24.62c3.345,0.409,6.698,0.632,10.051,0.632
			c5.444,0,10.887-0.54,16.283-1.62c13.026-2.605,24.842-8.226,34.796-16.03c-8.838,40.029-28.879,76.786-58.565,106.471
			C388.136,422.955,362.711,439.477,335,450.264z" fill="#e67e22"/>
	</g>
</g>
<g>
</g>
<g>
</g>
<g>
</g>
<g>
</g>
<g>
</g>
<g>
</g>
<g>
</g>
<g>
</g>
<g>
</g>
<g>
</g>
<g>
</g>
<g>
</g>
<g>
</g>
<g>
</g>
<g>
</g>
</svg>
