<?xml version="1.0" encoding="iso-8859-1"?>
<!-- Generator: Adobe Illustrator 19.0.0, SVG Export Plug-In . SVG Version: 6.00 Build 0)  -->
<svg version="1.1" id="Capa_1" xmlns="http://www.w3.org/2000/svg" xmlns:xlink="http://www.w3.org/1999/xlink" x="0px" y="0px"
	 viewBox="0 0 496 496" style="enable-background:new 0 0 496 496;" xml:space="preserve">
<g>
	<g>
		<g>
			<path d="M467.816,448l4.744-11.864c4.936-12.344,7.44-25.336,7.44-38.624V287.528c0-5.408-0.432-10.864-1.272-16.216l-7.576-48
				c-2.384-15.136-9.376-28.848-20.208-39.68l-38.656-38.656c-5.792-5.792-13.48-8.976-21.656-8.976
				C373.736,136,360,149.736,360,166.632c0,8.176,3.184,15.872,8.976,21.656l27.312,27.312C403.84,223.152,408,233.2,408,243.88
				v40.784c0,6.176-1.464,12.36-4.224,17.888l-8.64,17.272l-30.856-30.856c-5.784-5.784-13.472-8.968-21.648-8.968
				C325.736,280,312,293.736,312,310.632c0,8.176,3.184,15.872,8.976,21.656l54.624,54.624c10.576,10.576,16.4,24.64,16.4,39.6V448
				h-24v48h128v-48H467.816z M386.912,375.6l-54.624-54.624c-2.768-2.768-4.288-6.44-4.288-10.344
				c0-8.072,6.56-14.632,14.632-14.632c3.904,0,7.576,1.52,10.344,4.288l32,32c7.552,7.552,17.592,11.712,28.28,11.712H432v-16
				h-18.744c-1.384,0-2.752-0.176-4.104-0.408l8.936-17.88c3.872-7.736,5.912-16.392,5.912-25.048V243.88
				c0-14.96-5.824-29.016-16.4-39.6l-27.312-27.312c-2.768-2.76-4.288-6.432-4.288-10.336c0-8.072,6.56-14.632,14.632-14.632
				c3.904,0,7.576,1.52,10.344,4.288l38.656,38.656c8.424,8.424,13.856,19.096,15.712,30.864l7.576,48
				c0.72,4.528,1.08,9.152,1.08,13.72v109.984c0,11.24-2.12,22.24-6.296,32.68L450.584,448H408v-21.496
				C408,407.28,400.512,389.192,386.912,375.6z M480,480h-96v-16h96V480z" fill="#e67e22"/>
			<path d="M336,264c19.584,0,36.56,14.608,39.488,33.976l15.824-2.4C387.2,268.456,363.424,248,336,248c-30.88,0-56,25.12-56,56
				c0,27.424,20.456,51.2,47.576,55.312l2.4-15.824C310.608,340.56,296,323.584,296,304C296,281.944,313.944,264,336,264z" fill="#e67e22"/>
			<path d="M104,426.504c0-14.96,5.824-29.016,16.4-39.6l54.624-54.624c5.792-5.784,8.976-13.472,8.976-21.648
				C184,293.736,170.264,280,153.368,280c-8.176,0-15.872,3.184-21.656,8.976l-30.856,30.856l-8.64-17.264
				C89.464,297.032,88,290.84,88,284.664V243.88c0-10.68,4.16-20.728,11.712-28.288l27.312-27.312
				c5.792-5.784,8.976-13.472,8.976-21.648C136,149.736,122.264,136,105.368,136c-8.176,0-15.872,3.184-21.656,8.976l-38.656,38.656
				c-10.832,10.832-17.824,24.552-20.208,39.68l-7.576,48C16.432,276.664,16,282.128,16,287.528v109.984
				c0,13.288,2.504,26.28,7.44,38.624L28.184,448H0v48h128v-48h-24V426.504z M32,287.528c0-4.576,0.36-9.192,1.08-13.728l7.576-48
				c1.856-11.768,7.296-22.44,15.712-30.864l38.656-38.656c2.768-2.76,6.44-4.28,10.344-4.28c8.072,0,14.632,6.56,14.632,14.632
				c0,3.904-1.52,7.576-4.288,10.344L88.4,204.288c-10.576,10.576-16.4,24.64-16.4,39.6v40.784c0,8.648,2.04,17.312,5.912,25.048
				l8.936,17.872c-1.352,0.232-2.72,0.408-4.104,0.408H64v16h18.744c10.68,0,20.728-4.16,28.28-11.712l32-32
				c2.768-2.768,6.44-4.288,10.344-4.288c8.072,0,14.632,6.56,14.632,14.632c0,3.904-1.52,7.576-4.288,10.344L109.088,375.6
				C95.488,389.2,88,407.28,88,426.512V448H45.416l-7.12-17.808C34.12,419.752,32,408.752,32,397.512V287.528z M112,464v16H16v-16
				H112z" fill="#e67e22"/>
			<path d="M166.024,343.488l2.4,15.824C195.544,355.2,216,331.424,216,304c0-30.88-25.12-56-56-56
				c-27.424,0-51.2,20.456-55.312,47.576l15.824,2.4C123.44,278.608,140.416,264,160,264c22.056,0,40,17.944,40,40
				C200,323.584,185.392,340.56,166.024,343.488z" fill="#e67e22"/>
			<rect x="240" y="304" width="16" height="16" fill="#e67e22"/>
			<rect x="152" y="160" width="192" height="16" fill="#e67e22"/>
			<path d="M368,400h-64v-32H192v32h-64v16h240V400z M288,400h-80v-16h80V400z" fill="#e67e22"/>
			<path d="M128,216c0,13.232,10.768,24,24,24s24-10.768,24-24s-10.768-24-24-24S128,202.768,128,216z M152,208c4.408,0,8,3.592,8,8
				s-3.592,8-8,8s-8-3.592-8-8S147.592,208,152,208z" fill="#e67e22"/>
			<path d="M344,192c-13.232,0-24,10.768-24,24s10.768,24,24,24s24-10.768,24-24S357.232,192,344,192z M344,224
				c-4.408,0-8-3.592-8-8s3.592-8,8-8c4.408,0,8,3.592,8,8S348.408,224,344,224z" fill="#e67e22"/>
			<path d="M296,192h-96v64h96V192z M280,240h-64v-32h64V240z" fill="#e67e22"/>
			<path d="M231.904,145.216l14.976-97.328C247.256,47.904,247.616,48,248,48c0.384,0,0.744-0.096,1.12-0.112l14.976,97.328
				l15.816-2.432L264.32,41.488C269.016,37.104,272,30.912,272,24c0-13.232-10.768-24-24-24s-24,10.768-24,24
				c0,6.912,2.984,13.104,7.68,17.488l-15.584,101.296L231.904,145.216z M248,16c4.408,0,8,3.592,8,8s-3.592,8-8,8
				c-4.408,0-8-3.592-8-8S243.592,16,248,16z" fill="#e67e22"/>
		</g>
	</g>
</g>
<g>
</g>
<g>
</g>
<g>
</g>
<g>
</g>
<g>
</g>
<g>
</g>
<g>
</g>
<g>
</g>
<g>
</g>
<g>
</g>
<g>
</g>
<g>
</g>
<g>
</g>
<g>
</g>
<g>
</g>
</svg>
